<svg viewBox="0 0 256 35" xmlns="http://www.w3.org/2000/svg" xmlns:xlink="http://www.w3.org/1999/xlink"><path d="m252.058 24.586c-.696-1.556-2.319-2.681-3.975-2.681-.398 0-1.557 0-2.617.662.63-1.06 2.484-3.046 4.87-4.468l1.722 1.324zm2.451-11.054c-.927 1.655-3.08 3.276-4.273 4.203l-1.524-1.192v-4.93c.596 1.322 2.054 2.448 3.644 2.448.928 0 1.425-.167 2.153-.53zm1.491 4.17-2.683-2.019c1.789-1.555 2.484-3.642 2.484-5.064 0-.2-.033-.562-.066-.894h-.331c-.265.729-.795 1.358-1.889 1.358-1.06 0-1.821-.596-2.484-1.325l-6.261 3.408v5.065l2.319 1.82c-2.352 2.086-2.783 3.542-2.783 4.6 0 1.39.63 2.384 1.822 2.847l.166-.298c-.298-.265-.563-.43-.563-1.059 0-.463.563-1.125 1.623-1.125 1.358 0 2.186.925 2.617 1.423 0-.035 6.029-3.607 6.029-3.607zm-19.677 1.296v-6.818l.232-.166 3.047 4.8-3.28 2.184zm6.956 2.284-3.412 2.649-3.544-2.782v-1.655l6.592-4.401v-.2l-3.28-5.03-7.188 3.841v9.43l4.803 3.476 6.294-4.964zm-12.091 2.118-.994.662-1.49-1.357v-9.432l1.424-1.06-.232-.299-1.226.928-3.18-2.946-4.108 2.913-3.147-2.913-4.041 2.879-2.485-2.88-3.975 2.782.199.364.994-.663 1.358 1.489v9.003l-1.093 1.092 3.18 2.68 3.08-2.779-1.258-1.191v-9.4l1.193-.795 2.153 1.986v8.407l-1.06 1.092 3.213 2.68 3.015-2.779-1.26-1.191v-9.467l1.06-.695 2.287 1.953v8.273l-.928.961 3.246 2.945 4.274-2.911zm-23.189.165-1.06.695-1.358-1.357v-9.599l1.325-.991-.265-.331-1.027.793-2.418-2.88-3.975 2.782.232.364.993-.663 1.226 1.523v9.002l-1.789 1.357.199.265.927-.662 3.048 2.779 4.174-2.779zm-4.24-20.553-.199-.032-2.782 2.35v.197l2.352 2.649h.231l2.783-2.317-.033-.165zm-16.862 16.681-1.689.827c-.96-1.257-1.59-2.945-1.59-5.295 0-.961.1-2.152.397-2.98l2.916-1.29zm12.092-15.39c0-2.746-2.584-3.542-4.737-3.441v.432c1.292.03 2.285.462 2.285 1.32 0 .598-.43 1.358-1.722 1.358-1.027 0-3.015-.595-4.605-1.126-1.756-.594-3.412-1.157-4.803-1.157-2.717 0-4.77 2.02-4.77 4.5 0 2.02 1.523 2.747 2.153 3.012l.198-.33c-.397-.266-.795-.563-.795-1.357 0-.596.53-1.557 1.922-1.557 1.259 0 2.915.564 5.101 1.192 1.889.53 3.976 1.027 5.102 1.16v4.3l-2.12 1.756v.165l2.12 1.852v5.926c-1.093.628-2.352.794-3.445.794-2.021 0-3.942-.53-5.466-2.218l5.698-2.748v-9.498l-6.99 3.112c.729-1.854 2.186-3.078 3.677-3.973l-.1-.33c-4.14 1.126-7.917 4.93-7.917 9.63 0 5.628 4.572 9.796 9.773 9.796 5.631 0 9.209-4.4 9.143-9.066l-.332-.035c-.828 1.789-2.02 3.475-3.577 4.37v-5.76l2.252-1.786-.033-.198-2.22-1.789v-4.3c2.054 0 4.208-1.39 4.208-4.005zm-38.393 18.468-1.855 1.39.232.265.894-.63 3.114 2.846 4.174-2.779-.232-.298-1.06.695-1.358-1.357v-21.478h-.298l-5.035 3.342v.297c.497.297 1.424.43 1.424 2.12v15.586zm15.305.794-4.737 3.111-6.427-9.698 4.538-7.048.298-.034c.53.529 1.458 1.092 2.32 1.092.96 0 1.623-.528 2.02-1.092 0 0 .265.034.265 0-.166 2.814-2.054 4.403-3.478 4.403-1.458 0-2.153-.664-2.915-1.127l-.431.629 6.957 10.294 1.39-.86zm-16.73-13.337c0 .033-.264 0-.264 0-.365.33-.829.561-1.226.561-.53 0-1.226-.33-1.557-.76h-.265l-2.352 2.58-2.418-2.58-4.108 2.846.199.33 1.093-.728 1.424 1.522v8.772l-1.855 1.39.232.265.895-.63 3.345 2.846 4.34-2.88-.199-.296-1.225.728-1.624-1.458v-9.763c.696.762 1.524 1.425 2.485 1.425 1.855 0 2.882-2.052 3.08-4.17zm-20.67 11.616v-9.93l3.511 2.516v9.93zm7.387-8.771-4.505-3.21-6.758 3.872v9.069l-1.392 1.127.2.295 1.092-.893 4.472 3.277 6.89-4.203v-9.334zm-19.015 9.863c0 1.126-.762 2.216-2.22 2.216-.231 0-.894-.031-1.126-.065v-8.14c.331-.3.928-.763 1.69-.763.695 0 1.258.398 1.656.762zm0-6.486c-.331-.331-.928-.695-1.656-.695-.73 0-1.392.429-1.69.695v-3.64c.298.263.96.726 1.69.726.728 0 1.325-.396 1.656-.727v3.64zm0-4.137c-.364.397-.96.793-1.656.793-.762 0-1.325-.464-1.69-.793v-6.189l1.425-.96 1.921 1.754zm5.698-8.573-1.392 1.259-3.113-2.715-4.539 3.377v-3.179h-.464l.1 22.54c-.464-.067-1.623-.333-2.683-.497l-.1-18.831c0-1.39-.994-3.31-3.478-3.31-2.55 0-4.207 1.952-4.207 3.904h.397c.133-.827.563-1.554 1.392-1.554.86 0 1.59.528 1.59 2.383v5.426c-2.551.1-4.009 1.524-4.009 3.277 0 1.092.497 2.78 2.286 2.847l.066-.33c-.596-.266-.728-.631-.728-.962 0-.793.761-1.124 1.821-1.124h.497v8.605c-2.02.695-2.948 2.184-2.948 3.872 0 2.317 1.855 4.07 4.572 4.07 1.921 0 3.577-.33 5.334-.727 1.423-.298 3.146-.63 3.974-.63 1.06 0 1.524.497 1.524 1.258 0 .959-.43 1.324-.994 1.49l.067.33c2.285-.43 3.61-1.788 3.61-3.838 0-2.119-2.02-3.376-4.273-3.376-1.16 0-3.445.363-5.168.762-1.921.43-3.876.628-4.472.628-.96 0-2.152-.463-2.152-1.754 0-1.159.96-2.085 3.345-2.085 1.292 0 2.75.198 4.34.562 1.689.364 3.18.828 4.637.828 2.02 0 3.843-.728 3.843-3.674v-17.142l1.623-1.39-.298-.3zm-25.806 7.645-1.027.762-2.65-2.251-3.08 2.78 1.258 1.19v10.494l-3.379-2.15v-8.54l1.095-.76-3.248-3.013-3.015 2.78 1.26 1.19v9.964l-.432.265-2.947-2.086v-8.375c0-1.918-.927-2.482-2.153-3.242-1.027-.628-1.49-1.158-1.49-2.118 0-.794.794-1.259 1.192-1.489-.033-.035-.033-.332-.033-.332-1.06-.033-4.009 1.126-4.075 3.807-.033 1.39.63 1.984 1.325 2.648.696.66 1.325 1.289 1.325 2.447v8.044l-1.49 1.158.231.298 1.359-1.06 3.677 2.88 3.478-2.35 3.843 2.35 7.387-4.302v-9.334l1.822-1.324-.232-.332zm-29.747 7.613v-6.818l.232-.166 3.048 4.8zm6.957 2.284-3.412 2.649-3.545-2.782v-1.655l6.593-4.401v-.2l-3.28-5.03-7.188 3.841v9.133l-1.425 1.094.232.295 1.292-1.026 4.704 3.41 6.294-4.964zm-10.037-18.236c0-.431-.1-.794-.265-1.29h-.332c-.43 1.158-.96 1.785-2.318 1.785-1.193 0-2.12-.726-2.617-1.257 0 .033-3.976 4.6-3.976 4.6l.332.3 1.126-1.292c.861.66 1.49 1.291 3.412 1.323v11.584l-8.15-14.099c-.629-1.058-1.689-2.647-3.643-2.647-2.187 0-4.207 1.888-3.942 5.065h.397c.1-.86.53-1.787 1.49-1.787.763 0 1.459.726 1.823 1.39v4.534c-2.518 0-4.174 1.158-4.174 3.209 0 1.059.53 2.846 2.286 3.177l.033-.298c-.232-.232-.464-.495-.464-.96 0-.76.563-1.257 1.59-1.257.166 0 .63.033.729.067v5.891c-2.948.032-5.234 1.653-5.234 4.435 0 2.647 2.286 3.905 4.67 3.771l.034-.33c-1.49-.165-2.286-.86-2.286-1.82 0-1.192.861-1.82 1.955-1.82 1.126 0 2.12.695 2.815 1.49l4.009-4.468-.332-.3-1.026 1.158c-1.524-1.356-2.386-1.854-4.141-2.117v-13.934l11.23 19.56h.795v-19.494c2.153-.133 4.174-1.754 4.174-4.169zm-33.59 15.952v-6.818l.232-.166 3.048 4.8zm6.957 2.284-3.412 2.649-3.545-2.782v-1.655l6.593-4.401v-.2l-3.28-5.03-7.188 3.841v9.133l-1.425 1.094.232.295 1.292-1.026 4.704 3.41 6.294-4.964zm-25.441 1.488-1.855 1.39.231.265.895-.63 3.114 2.846 4.174-2.779-.199-.298-1.093.695-1.358-1.357v-9.531l1.126-.829 2.385 1.92v8.44c0 5.262-1.16 6.123-3.544 6.983v.364c3.942.166 7.486-1.158 7.486-7.91v-9.067l1.259-.995-.232-.296-1.093.86-3.412-2.946-3.975 2.98v-11.451h-.298l-4.936 3.31v.296c.497.299 1.325.496 1.325 2.152zm-14.742-3.077-1.69.827c-.96-1.257-1.59-2.945-1.59-5.295 0-.961.1-2.152.398-2.98l2.915-1.29zm12.092-15.39c0-2.746-2.584-3.542-4.738-3.441v.432c1.292.03 2.286.462 2.286 1.32 0 .598-.43 1.358-1.722 1.358-1.027 0-3.015-.595-4.605-1.126-1.756-.594-3.412-1.156-4.803-1.156-2.717 0-4.77 2.02-4.77 4.5 0 2.02 1.523 2.747 2.153 3.012l.198-.33c-.397-.266-.795-.563-.795-1.357 0-.596.53-1.557 1.922-1.557 1.258 0 2.915.564 5.101 1.192 1.888.53 3.975 1.027 5.102 1.16v4.3l-2.12 1.756v.165l2.12 1.852v5.926c-1.094.628-2.352.794-3.446.794-2.02 0-3.942-.53-5.465-2.218l5.697-2.748v-9.499l-6.989 3.112c.73-1.854 2.187-3.078 3.678-3.973l-.1-.33c-4.141 1.125-7.918 4.929-7.918 9.629 0 5.628 4.572 9.796 9.772 9.796 5.632 0 9.21-4.4 9.143-9.066l-.33-.035c-.829 1.789-2.022 3.475-3.579 4.37v-5.76l2.253-1.786-.033-.198-2.22-1.789v-4.3c2.054 0 4.208-1.39 4.208-4.005z"/></svg>
